<?xml version="1.0" standalone="no"?>
<!DOCTYPE svg PUBLIC "-//W3C//DTD SVG 20010904//EN"
 "http://www.w3.org/TR/2001/REC-SVG-20010904/DTD/svg10.dtd">
<svg version="1.0" xmlns="http://www.w3.org/2000/svg"
 width="500.000000pt" height="500.000000pt" viewBox="0 0 500.000000 500.000000"
 preserveAspectRatio="xMidYMid meet">
<metadata>
Created by potrace 1.14, written by Peter Selinger 2001-2017
</metadata>
<g transform="translate(0.000000,500.000000) scale(0.100000,-0.100000)"
fill="#000000" stroke="none">
<path d="M930 3140 c0 -11 5 -20 10 -20 6 0 10 -48 10 -125 0 -77 -4 -125 -10
-125 -5 0 -10 -9 -10 -20 0 -18 7 -20 55 -20 48 0 55 2 55 20 0 15 -7 20 -25
20 -24 0 -25 3 -25 55 l0 55 48 0 c37 0 53 5 70 23 70 75 10 157 -115 157 -56
0 -63 -2 -63 -20z m150 -40 c11 -11 20 -24 20 -29 0 -22 -38 -52 -72 -58 l-38
-6 0 57 0 56 35 0 c22 0 43 -8 55 -20z"/>
<path d="M1240 3140 c0 -11 7 -20 15 -20 13 0 15 -21 15 -125 0 -104 -2 -125
-15 -125 -8 0 -15 -9 -15 -20 0 -18 7 -20 55 -20 48 0 55 2 55 20 0 13 -7 20
-20 20 -19 0 -20 7 -20 125 0 118 1 125 20 125 13 0 20 7 20 20 0 18 -7 20
-55 20 -48 0 -55 -2 -55 -20z"/>
<path d="M1450 3140 c0 -11 7 -20 15 -20 13 0 15 -21 15 -125 0 -104 -2 -125
-15 -125 -8 0 -15 -9 -15 -20 0 -19 7 -20 115 -20 l115 0 0 35 c0 24 -5 35
-15 35 -8 0 -15 -7 -15 -15 0 -12 -15 -15 -71 -15 l-70 0 3 53 3 52 73 3 c54
2 72 6 72 17 0 11 -18 15 -72 17 l-73 3 -3 53 -3 52 65 0 c52 0 66 -3 66 -15
0 -8 9 -15 20 -15 16 0 20 7 20 35 l0 35 -115 0 c-108 0 -115 -1 -115 -20z"/>
<path d="M1780 3141 c0 -12 5 -21 10 -21 6 0 10 -48 10 -124 0 -73 -4 -127
-10 -131 -5 -3 -10 -13 -10 -21 0 -11 14 -14 60 -14 53 0 60 2 60 20 0 16 -7
20 -31 20 l-30 0 3 52 c2 41 7 54 20 56 13 3 27 -16 55 -72 35 -72 39 -76 70
-76 26 0 33 4 33 20 0 14 -7 20 -23 20 -18 0 -28 11 -45 51 l-21 52 30 28 c26
24 30 34 27 70 -4 61 -37 83 -134 87 -70 4 -74 3 -74 -17z m151 -31 c23 -13
26 -62 4 -80 -9 -7 -32 -13 -53 -14 l-37 -1 -3 53 -3 52 36 0 c20 0 45 -5 56
-10z"/>
<path d="M2120 3140 c0 -11 5 -20 10 -20 6 0 10 -48 10 -125 0 -77 -4 -125
-10 -125 -5 0 -10 -9 -10 -20 0 -18 7 -20 61 -20 52 0 60 2 57 18 -2 10 -14
18 -31 20 -26 3 -27 6 -27 58 l0 54 50 0 c62 0 100 31 100 80 0 69 -47 100
-150 100 -53 0 -60 -2 -60 -20z m152 -37 c21 -19 24 -56 4 -72 -7 -6 -31 -12
-52 -14 l-39 -2 -3 53 -3 52 37 0 c21 0 46 -7 56 -17z"/>
<path d="M2534 3018 c-49 -117 -64 -144 -82 -146 -14 -2 -22 -10 -22 -23 0
-16 7 -19 55 -19 41 0 55 4 55 15 0 7 -6 18 -14 22 -11 7 -10 15 5 51 18 42
19 42 69 42 50 0 51 0 69 -42 15 -36 16 -44 5 -51 -8 -4 -14 -15 -14 -22 0
-11 14 -15 55 -15 48 0 55 3 55 19 0 13 -8 21 -22 23 -18 2 -33 29 -82 146
-32 78 -62 142 -66 142 -4 0 -34 -64 -66 -142z m85 21 c6 -18 11 -34 11 -35 0
-2 -13 -4 -30 -4 -16 0 -30 2 -30 4 0 14 24 66 30 66 4 0 13 -14 19 -31z"/>
<path d="M2980 3153 c-36 -14 -72 -48 -91 -86 -56 -108 22 -237 143 -237 57 0
96 17 131 60 67 79 49 185 -43 248 -32 21 -102 29 -140 15z m143 -67 c113
-113 -27 -286 -161 -198 -49 32 -66 105 -37 166 21 43 60 65 117 66 41 0 52
-5 81 -34z"/>
<path d="M3310 3140 c0 -11 5 -20 10 -20 6 0 10 -48 10 -125 0 -77 -4 -125
-10 -125 -5 0 -10 -9 -10 -20 0 -19 7 -20 115 -20 l115 0 0 35 c0 28 -4 35
-20 35 -11 0 -20 -7 -20 -15 0 -12 -14 -15 -65 -15 l-65 0 0 125 c0 118 1 125
20 125 13 0 20 7 20 20 0 17 -7 20 -50 20 -43 0 -50 -3 -50 -20z"/>
<path d="M3723 3135 c-46 -28 -83 -91 -83 -141 1 -44 34 -108 70 -134 45 -32
124 -38 175 -15 85 41 118 161 65 238 -53 77 -148 99 -227 52z m166 -41 c34
-29 57 -89 47 -127 -17 -69 -97 -118 -159 -98 -143 48 -116 251 34 251 36 0
55 -6 78 -26z"/>
<path d="M1463 2619 c-10 -24 -39 -92 -63 -151 -34 -81 -50 -108 -65 -110 -11
-2 -21 -11 -23 -20 -3 -15 5 -18 52 -18 49 0 56 3 56 19 0 11 -6 21 -13 23
-11 2 -10 12 5 46 19 42 19 42 71 42 52 0 52 0 70 -43 11 -26 14 -43 7 -45 -5
-2 -10 -12 -10 -23 0 -16 7 -19 50 -19 43 0 50 3 50 20 0 13 -7 20 -19 20 -15
0 -33 33 -84 151 l-65 152 -19 -44z m47 -120 c0 -5 -13 -9 -30 -9 -35 0 -34
-3 -14 46 l16 38 14 -33 c8 -18 14 -37 14 -42z"/>
<path d="M1046 2627 c-45 -25 -86 -93 -86 -141 1 -79 65 -153 140 -163 42 -6
110 4 110 15 -1 25 -17 31 -52 20 -30 -9 -42 -8 -74 8 -47 23 -84 76 -84 118
0 56 55 121 105 126 48 5 75 -1 75 -15 0 -8 9 -15 20 -15 14 0 20 7 20 23 0
49 -105 64 -174 24z"/>
<path d="M1836 2627 c-45 -25 -86 -93 -86 -141 1 -79 65 -153 140 -163 42 -6
110 4 110 15 -1 25 -17 31 -52 20 -30 -9 -42 -8 -74 8 -47 23 -84 76 -84 118
0 56 55 121 105 126 48 5 75 -1 75 -15 0 -8 9 -15 20 -15 14 0 20 7 20 23 0
49 -105 64 -174 24z"/>
<path d="M2194 2631 c-41 -25 -72 -66 -84 -112 -33 -121 88 -227 218 -193 29
8 26 41 -3 36 -88 -15 -135 5 -168 71 -45 90 37 195 141 179 12 -2 22 -10 22
-18 0 -8 9 -14 20 -14 32 0 27 48 -6 60 -41 16 -106 12 -140 -9z"/>
<path d="M2460 2630 c0 -13 7 -20 20 -20 19 0 20 -7 20 -125 0 -118 -1 -125
-20 -125 -13 0 -20 -7 -20 -20 0 -18 7 -20 55 -20 48 0 55 2 55 20 0 11 -7 20
-15 20 -13 0 -15 21 -15 125 0 104 2 125 15 125 8 0 15 9 15 20 0 18 -7 20
-55 20 -48 0 -55 -2 -55 -20z"/>
<path d="M2753 2625 c-46 -28 -83 -91 -83 -141 1 -44 34 -108 70 -134 45 -32
124 -38 175 -15 85 41 118 161 65 238 -53 77 -148 99 -227 52z m166 -41 c34
-29 57 -89 47 -127 -17 -69 -97 -118 -159 -98 -143 48 -116 251 34 251 36 0
55 -6 78 -26z"/>
<path d="M3110 2615 c0 -28 4 -35 20 -35 11 0 20 7 20 15 0 10 11 15 35 15
l35 0 0 -125 c0 -118 -1 -125 -20 -125 -13 0 -20 -7 -20 -20 0 -18 7 -20 55
-20 48 0 55 2 55 20 0 11 -7 20 -15 20 -13 0 -15 21 -15 125 l0 125 35 0 c24
0 35 -5 35 -15 0 -8 9 -15 20 -15 16 0 20 7 20 35 l0 35 -130 0 -130 0 0 -35z"/>
<path d="M3470 2615 c0 -28 4 -35 20 -35 11 0 20 7 20 15 0 10 11 15 35 15
l35 0 0 -125 c0 -118 -1 -125 -20 -125 -13 0 -20 -7 -20 -20 0 -18 7 -20 55
-20 48 0 55 2 55 20 0 11 -7 20 -15 20 -13 0 -15 21 -15 125 l0 125 35 0 c24
0 35 -5 35 -15 0 -8 9 -15 20 -15 16 0 20 7 20 35 l0 35 -130 0 -130 0 0 -35z"/>
<path d="M3830 2630 c0 -13 7 -20 20 -20 19 0 20 -7 20 -125 0 -118 -1 -125
-20 -125 -13 0 -20 -7 -20 -20 0 -18 7 -20 55 -20 48 0 55 2 55 20 0 11 -7 20
-15 20 -13 0 -15 21 -15 125 0 104 2 125 15 125 8 0 15 9 15 20 0 18 -7 20
-55 20 -48 0 -55 -2 -55 -20z"/>
<path d="M500 1985 l0 -25 1910 0 1910 0 0 25 0 25 -1910 0 -1910 0 0 -25z"/>
<path d="M1108 1679 c-30 -17 -22 -56 15 -75 37 -19 47 -32 40 -51 -7 -18 -52
-17 -59 2 -8 20 -24 19 -24 0 0 -39 93 -44 105 -6 9 29 -5 51 -41 66 -35 15
-45 41 -19 51 8 4 22 1 30 -6 9 -7 19 -10 23 -6 8 8 -26 36 -42 36 -6 0 -19
-5 -28 -11z"/>
<path d="M1285 1605 l0 -85 53 0 c48 0 52 2 51 23 0 12 -3 16 -6 10 -2 -7 -20
-13 -39 -13 -30 0 -34 3 -34 25 0 22 4 25 35 25 19 0 35 5 35 10 0 6 -16 10
-35 10 -32 0 -35 2 -35 30 0 27 3 30 30 30 17 0 30 -4 30 -10 0 -5 5 -10 10
-10 6 0 10 9 10 20 0 17 -7 20 -52 20 l-53 0 0 -85z"/>
<path d="M1495 1605 l0 -85 28 0 c15 0 27 5 27 10 0 6 -7 10 -15 10 -9 0 -15
9 -15 25 0 36 18 31 37 -10 15 -32 53 -50 53 -25 0 6 -6 10 -13 10 -8 0 -19
12 -26 27 -10 22 -10 28 3 35 9 5 16 22 16 39 0 31 -27 49 -73 49 -21 0 -22
-4 -22 -85z m59 59 c32 -12 13 -54 -25 -54 -5 0 -9 14 -9 30 0 31 6 35 34 24z"/>
<path d="M1700 1684 c0 -4 6 -12 14 -18 7 -6 26 -41 41 -78 15 -37 31 -66 35
-63 3 2 19 36 35 74 16 41 34 71 42 71 8 0 11 5 8 10 -3 6 -18 10 -32 10 -19
0 -24 -4 -19 -16 3 -9 -3 -37 -15 -62 l-21 -47 -23 50 c-12 28 -19 52 -14 53
20 8 7 22 -21 22 -16 0 -30 -3 -30 -6z"/>
<path d="M1970 1681 c0 -6 5 -13 10 -16 6 -3 10 -33 10 -66 0 -33 -4 -59 -10
-59 -5 0 -10 -4 -10 -10 0 -5 14 -10 30 -10 17 0 30 5 30 10 0 6 -4 10 -10 10
-6 0 -10 28 -10 65 0 39 4 65 11 65 5 0 7 5 4 10 -8 13 -55 13 -55 1z"/>
<path d="M2120 1680 c0 -5 20 -10 45 -10 25 0 45 -3 45 -7 0 -4 -20 -33 -45
-64 -25 -32 -45 -62 -45 -68 0 -7 25 -11 65 -11 l65 0 0 30 c0 17 -4 30 -10
30 -5 0 -10 -9 -10 -20 0 -17 -7 -20 -40 -20 -22 0 -40 2 -40 4 0 2 20 30 45
62 25 31 45 63 45 71 0 9 -17 13 -60 13 -33 0 -60 -4 -60 -10z"/>
<path d="M2345 1680 c-3 -5 -1 -10 4 -10 7 0 11 -26 11 -65 0 -37 -4 -65 -10
-65 -5 0 -10 -4 -10 -10 0 -5 14 -10 30 -10 17 0 30 5 30 10 0 6 -4 10 -10 10
-6 0 -10 28 -10 65 0 37 4 65 10 65 6 0 10 5 10 10 0 6 -11 10 -24 10 -14 0
-28 -4 -31 -10z"/>
<path d="M2645 1605 l0 -85 58 0 c50 0 57 2 57 20 0 11 -4 20 -10 20 -5 0 -10
-4 -10 -10 0 -5 -16 -10 -35 -10 l-35 0 0 59 c0 33 5 63 10 66 18 11 11 25
-12 25 -22 0 -23 -4 -23 -85z"/>
<path d="M2855 1681 c-3 -5 -1 -12 5 -16 13 -8 13 -125 0 -125 -5 0 -10 -4
-10 -10 0 -6 27 -10 60 -10 55 0 60 2 60 22 0 17 -3 19 -12 10 -7 -7 -25 -12
-40 -12 -23 0 -28 4 -28 25 0 22 4 25 35 25 19 0 35 5 35 10 0 6 -16 10 -35
10 -32 0 -35 2 -35 30 0 27 3 30 30 30 17 0 30 -4 30 -10 0 -5 5 -10 10 -10 6
0 10 9 10 20 0 18 -7 20 -54 20 -30 0 -57 -4 -61 -9z"/>
<path d="M3110 1677 c-78 -39 -46 -162 40 -155 31 3 35 6 38 36 3 27 0 32 -17
32 -12 0 -21 -4 -21 -10 0 -5 5 -10 10 -10 6 0 10 -7 10 -15 0 -20 -44 -20
-64 0 -24 25 -29 54 -12 80 17 25 57 42 75 31 5 -4 12 -2 15 3 6 9 -16 21 -37
21 -7 0 -23 -6 -37 -13z"/>
<path d="M3335 1614 c-17 -40 -36 -74 -42 -74 -7 0 -13 -4 -13 -10 0 -5 14
-10 31 -10 26 0 29 3 24 20 -14 43 44 69 65 31 5 -11 7 -27 4 -35 -5 -12 0
-16 20 -16 14 0 26 5 26 10 0 6 -4 10 -9 10 -5 0 -22 32 -37 71 -15 38 -30 72
-34 74 -3 2 -19 -30 -35 -71z m45 0 c0 -14 -12 -19 -23 -8 -9 9 4 35 14 28 5
-3 9 -12 9 -20z"/>
<path d="M3555 1605 l0 -85 58 0 c43 0 57 4 57 14 0 8 -4 18 -10 21 -5 3 -10
1 -10 -4 0 -6 -16 -11 -35 -11 l-35 0 0 65 c0 37 4 65 10 65 6 0 10 5 10 10 0
6 -10 10 -22 10 -22 0 -23 -4 -23 -85z"/>
<path d="M3760 1681 c0 -6 5 -13 10 -16 6 -3 10 -33 10 -66 0 -33 -4 -59 -10
-59 -5 0 -10 -4 -10 -10 0 -5 14 -10 30 -10 17 0 30 5 30 10 0 6 -4 10 -10 10
-6 0 -10 28 -10 65 0 39 4 65 11 65 5 0 7 5 4 10 -8 13 -55 13 -55 1z"/>
</g>
</svg>
