<?xml version="1.0" encoding="UTF-8" standalone="no" ?>
<!DOCTYPE svg PUBLIC "-//W3C//DTD SVG 1.1//EN" "http://www.w3.org/Graphics/SVG/1.1/DTD/svg11.dtd">
<svg xmlns="http://www.w3.org/2000/svg" xmlns:xlink="http://www.w3.org/1999/xlink" version="1.1" width="400" height="400" viewBox="0 0 400 400" xml:space="preserve">
<desc>Created with Fabric.js 3.6.2</desc>
<defs>
</defs>
<g transform="matrix(9.09 0 0 9.09 200 200)" id="Layer_1"  >
<path style="stroke: none; stroke-width: 1; stroke-dasharray: none; stroke-linecap: butt; stroke-dashoffset: 0; stroke-linejoin: miter; stroke-miterlimit: 4; fill: rgb(224,174,119); fill-rule: nonzero; opacity: 1;"  transform=" translate(-12, -12)" d="M 22.26465 2.42773 a 2.04837 2.04837 0 0 0 -2.07813 -0.32421 L 2.26562 9.33887 a 2.043 2.043 0 0 0 0.1045 3.81836 l 3.625 1.26074 l 2.0205 6.68164 A 0.998 0.998 0 0 0 8.134 21.352 c 0.00775 0.012 0.01868 0.02093 0.02692 0.03259 a 0.98844 0.98844 0 0 0 0.21143 0.21576 c 0.02307 0.01758 0.04516 0.03406 0.06982 0.04968 a 0.98592 0.98592 0 0 0 0.31073 0.13611 l 0.01184 0.001 l 0.00671 0.00287 a 1.02183 1.02183 0 0 0 0.20215 0.02051 c 0.00653 0 0.01233 -0.00312 0.0188 -0.00324 a 0.99255 0.99255 0 0 0 0.30109 -0.05231 c 0.02258 -0.00769 0.04193 -0.02056 0.06384 -0.02984 a 0.9931 0.9931 0 0 0 0.20429 -0.11456 a 250.75993 250.75993 0 0 1 0.15222 -0.12818 L 12.416 18.499 l 4.03027 3.12207 a 2.02322 2.02322 0 0 0 1.24121 0.42676 A 2.05413 2.05413 0 0 0 19.69531 20.415 L 22.958 4.39844 A 2.02966 2.02966 0 0 0 22.26465 2.42773 Z M 9.37012 14.73633 a 0.99357 0.99357 0 0 0 -0.27246 0.50586 l -0.30951 1.504 l -0.78406 -2.59307 l 4.06525 -2.11695 Z M 17.67188 20.04 l -4.7627 -3.68945 a 1.00134 1.00134 0 0 0 -1.35352 0.11914 l -0.86541 0.9552 l 0.30584 -1.48645 l 7.083 -7.083 a 0.99975 0.99975 0 0 0 -1.16894 -1.59375 L 6.74487 12.55432 L 3.02051 11.19141 L 20.999 3.999 Z" stroke-linecap="round" />
</g>
</svg>